<?xml version="1.0" encoding="utf-8"?>
<!-- Generator: Adobe Illustrator 19.0.0, SVG Export Plug-In . SVG Version: 6.00 Build 0)  -->
<svg version="1.1" id="Livello_1" xmlns="http://www.w3.org/2000/svg" xmlns:xlink="http://www.w3.org/1999/xlink" x="0px" y="0px"
	 width="255.8px" height="62px" viewBox="0 0 255.8 62" style="enable-background:new 0 0 255.8 62;" xml:space="preserve">
<style type="text/css">
	.st0{fill:none;stroke:#3B51A2;stroke-width:4.8584;stroke-miterlimit:10;}
	.st1{fill:#3B50A2;}
	.st2{fill:none;stroke:#3B51A2;stroke-width:4.8588;stroke-miterlimit:10;}
	.st3{fill:#3B51A2;}
</style>
<g>
	<path class="st0" d="M193.3,2.4"/>
	<g>
		<path class="st1" d="M25.7,34.9l-8.8-3.7v-0.1l7.5-3.2l-1-5.3l-12.2,6v5.1l15.8,7.8L25.7,34.9z"/>
		<path class="st1" d="M50,35.4h0.1l3.5-20.6h6.1l-6.2,32.3h-5.9l-4.6-19.8h-0.1l-4.5,19.8h-5.9l-6.2-32.3h6.1l3.5,20.6h0.1
			l4.7-20.6h4.5L50,35.4z"/>
		<path class="st1" d="M78.7,33H67.8v9.1h12.8v5H61.5V14.8h19v5H67.8v8.1h10.9V33z"/>
		<path class="st1" d="M82.7,47.1V14.8h9.5c3.3,0,5.9,0.7,7.8,2.2c1.9,1.5,2.8,3.7,2.8,6.6c0,1.5-0.3,2.9-1,4.1
			c-0.7,1.2-1.7,2.1-3.1,2.7c1.7,0.4,3,1.3,3.8,2.6c0.8,1.3,1.2,2.9,1.2,4.7c0,3.1-0.9,5.4-2.7,7s-4.3,2.4-7.6,2.4H82.7z M89,28.5
			h3.5c1.3,0,2.3-0.4,3-1.1c0.7-0.7,1-1.8,1-3.1c0-1.5-0.4-2.6-1.1-3.3c-0.7-0.7-1.8-1.1-3.2-1.1H89V28.5z M89,32.9v9.2h4.5
			c1.3,0,2.3-0.4,3-1.1c0.7-0.7,1-1.8,1-3.3c0-1.5-0.3-2.7-0.8-3.6c-0.6-0.8-1.5-1.2-2.7-1.2H89z"/>
		<path class="st1" d="M110.5,47.1h-6.2v-5.7h6.2V47.1z"/>
		<path class="st1" d="M118.6,47.1h-6.3V14.8h6.3V47.1z"/>
		<path class="st1" d="M136.1,38.7c0-1.3-0.3-2.3-1-3s-1.8-1.5-3.4-2.2c-3.4-1.2-5.9-2.5-7.6-4c-1.7-1.5-2.5-3.6-2.5-6.2
			c0-2.6,1-4.8,2.9-6.5s4.4-2.5,7.5-2.5c3.1,0,5.6,0.9,7.5,2.8c1.9,1.9,2.9,4.2,2.8,7l0,0.1h-6.1c0-1.5-0.4-2.7-1.1-3.6
			c-0.7-0.9-1.8-1.4-3.1-1.4c-1.3,0-2.2,0.4-2.9,1.1c-0.7,0.8-1.1,1.7-1.1,2.9c0,1.1,0.4,1.9,1.2,2.6c0.8,0.7,2.1,1.5,4.1,2.3
			c3.1,1,5.4,2.4,6.9,3.9c1.5,1.6,2.3,3.7,2.3,6.4c0,2.8-0.9,5-2.8,6.6c-1.9,1.6-4.3,2.4-7.4,2.4c-3.1,0-5.7-0.9-8-2.7
			c-2.3-1.8-3.3-4.4-3.3-7.7l0-0.1h6.1c0,2,0.4,3.4,1.3,4.3c0.8,0.9,2.1,1.3,3.8,1.3c1.3,0,2.3-0.4,3-1.1
			C135.8,40.9,136.1,39.9,136.1,38.7z"/>
		<path class="st1" d="M149,47.1h-6.2v-5.7h6.2V47.1z"/>
		<path class="st1" d="M166.9,40.2h-8.5l-1.7,6.9h-6.4l9.1-32.3h6.6l9.1,32.3h-6.4L166.9,40.2z M159.7,35.2h6l-2.9-11.4h-0.1
			L159.7,35.2z"/>
		<path class="st1" d="M182.7,34.3v12.9h-6.3V14.8H187c3.2,0,5.7,0.8,7.5,2.5c1.8,1.7,2.7,4,2.7,7c0,1.7-0.4,3.1-1.1,4.4
			c-0.8,1.2-1.9,2.2-3.3,2.9c1.7,0.6,2.9,1.5,3.6,2.8c0.7,1.3,1.1,2.9,1.1,4.9v2.3c0,0.9,0.1,1.8,0.3,2.9c0.2,1,0.6,1.8,1.1,2.2v0.5
			h-6.5c-0.5-0.5-0.8-1.2-1-2.3c-0.1-1.1-0.2-2.2-0.2-3.3v-2.2c0-1.6-0.3-2.9-1-3.8c-0.7-0.9-1.6-1.3-2.8-1.3H182.7z M182.7,29.2
			h4.2c1.3,0,2.3-0.4,2.9-1.2c0.7-0.8,1-1.9,1-3.4c0-1.5-0.3-2.7-1-3.5c-0.7-0.9-1.6-1.3-2.9-1.3h-4.2V29.2z"/>
		<path class="st1" d="M218.3,19.9H211v27.3h-6.3V19.9h-7.2v-5h20.8V19.9z"/>
		<path class="st1" d="M223.7,14.8h5l-6.3,32.3h-4.8L223.7,14.8z"/>
		<path class="st1" d="M231.9,22.3l-1,5.3l8.1,3.4v0.1l-9.6,4.1l-1.3,6.5v0l16.5-8.1v-5.1L231.9,22.3z"/>
	</g>
	<polyline class="st1" points="11.1,33.6 26.9,41.5 25.7,34.9 16.8,31.2 16.8,31.1 24.3,27.8 23.3,22.6 11.1,28.5 	"/>
	<path class="st1" d="M50,35.4h0.1l3.5-20.6h6.1l-6.2,32.3h-5.9l-4.6-19.8h-0.1l-4.5,19.8h-5.9l-6.2-32.3h6.1l3.5,20.6h0.1l4.7-20.6
		h4.5L50,35.4z"/>
	<path class="st1" d="M78.7,33H67.8v9.1h12.8v5H61.5V14.8h19v5H67.8v8.1h10.9V33z"/>
	<path class="st1" d="M82.7,47.1V14.8h9.5c3.3,0,5.9,0.7,7.8,2.2c1.9,1.5,2.8,3.7,2.8,6.6c0,1.5-0.3,2.9-1,4.1
		c-0.7,1.2-1.7,2.1-3.1,2.7c1.7,0.4,3,1.3,3.8,2.6c0.8,1.3,1.2,2.9,1.2,4.7c0,3.1-0.9,5.4-2.7,7s-4.3,2.4-7.6,2.4H82.7z M89,28.5
		h3.5c1.3,0,2.3-0.4,3-1.1c0.7-0.7,1-1.8,1-3.1c0-1.5-0.4-2.6-1.1-3.3c-0.7-0.7-1.8-1.1-3.2-1.1H89V28.5z M89,32.9v9.2h4.5
		c1.3,0,2.3-0.4,3-1.1c0.7-0.7,1-1.8,1-3.3c0-1.5-0.3-2.7-0.8-3.6c-0.6-0.8-1.5-1.2-2.7-1.2H89z"/>
	<path class="st1" d="M110.5,47.1h-6.2v-5.7h6.2V47.1z"/>
	<path class="st1" d="M118.6,47.1h-6.3V14.8h6.3V47.1z"/>
	<path class="st1" d="M136.1,38.7c0-1.3-0.3-2.3-1-3s-1.8-1.5-3.4-2.2c-3.4-1.2-5.9-2.5-7.6-4c-1.7-1.5-2.5-3.6-2.5-6.2
		c0-2.6,1-4.8,2.9-6.5s4.4-2.5,7.5-2.5c3.1,0,5.6,0.9,7.5,2.8c1.9,1.9,2.9,4.2,2.8,7l0,0.1h-6.1c0-1.5-0.4-2.7-1.1-3.6
		c-0.7-0.9-1.8-1.4-3.1-1.4c-1.3,0-2.2,0.4-2.9,1.1c-0.7,0.8-1.1,1.7-1.1,2.9c0,1.1,0.4,1.9,1.2,2.6c0.8,0.7,2.1,1.5,4.1,2.3
		c3.1,1,5.4,2.4,6.9,3.9c1.5,1.6,2.3,3.7,2.3,6.4c0,2.8-0.9,5-2.8,6.6c-1.9,1.6-4.3,2.4-7.4,2.4c-3.1,0-5.7-0.9-8-2.7
		c-2.3-1.8-3.3-4.4-3.3-7.7l0-0.1h6.1c0,2,0.4,3.4,1.3,4.3c0.8,0.9,2.1,1.3,3.8,1.3c1.3,0,2.3-0.4,3-1.1
		C135.8,40.9,136.1,39.9,136.1,38.7z"/>
	<path class="st1" d="M149,47.1h-6.2v-5.7h6.2V47.1z"/>
	<path class="st1" d="M166.9,40.2h-8.5l-1.7,6.9h-6.4l9.1-32.3h6.6l9.1,32.3h-6.4L166.9,40.2z M159.7,35.2h6l-2.9-11.4h-0.1
		L159.7,35.2z"/>
	<path class="st1" d="M182.7,34.3v12.9h-6.3V14.8H187c3.2,0,5.7,0.8,7.5,2.5c1.8,1.7,2.7,4,2.7,7c0,1.7-0.4,3.1-1.1,4.4
		c-0.8,1.2-1.9,2.2-3.3,2.9c1.7,0.6,2.9,1.5,3.6,2.8c0.7,1.3,1.1,2.9,1.1,4.9v2.3c0,0.9,0.1,1.8,0.3,2.9c0.2,1,0.6,1.8,1.1,2.2v0.5
		h-6.5c-0.5-0.5-0.8-1.2-1-2.3c-0.1-1.1-0.2-2.2-0.2-3.3v-2.2c0-1.6-0.3-2.9-1-3.8c-0.7-0.9-1.6-1.3-2.8-1.3H182.7z M182.7,29.2h4.2
		c1.3,0,2.3-0.4,2.9-1.2c0.7-0.8,1-1.9,1-3.4c0-1.5-0.3-2.7-1-3.5c-0.7-0.9-1.6-1.3-2.9-1.3h-4.2V29.2z"/>
	<path class="st1" d="M218.3,19.9H211v27.3h-6.3V19.9h-7.2v-5h20.8V19.9z"/>
	<path class="st1" d="M223.7,14.8h5l-6.3,32.3h-4.8L223.7,14.8z"/>
	<path class="st1" d="M231.9,22.3l-1,5.3l8.1,3.4v0.1l-9.6,4.1l-1.3,6.5v0l16.5-8.1v-5.1L231.9,22.3z"/>
	<path class="st2" d="M231.2,2.4"/>
	<path class="st3" d="M226.6,0l-1.9,10.1c1.6,0,3.4,0,5,0l1-5.2h20.2v52.2H4.9V4.9h213.4V0H0v62h255.8V0H226.6z"/>
</g>
</svg>
